<svg width="781" height="662" xmlns="http://www.w3.org/2000/svg"><path d="M160.051.534C31.972 7.372-42.324 150.56 25.637 259.583c61.442 98.563 205.002 106.837 276.448 15.932l4.25-5.408 3.682.937c16.05 4.08 40.3 2.831 58.485-3.011 10.122-3.252 30.915-15.461 30.969-18.183.066-3.361-.89-3.19-7.627 1.363-22.789 15.401-45.817 18.089-72.382 8.447-5.326-1.933-5.217-1.305-1.415-8.094C382.598 136.296 292.695-6.547 160.051.534m19.975 13.322c102.601 7.667 170.177 108.854 137.495 205.883-3.427 10.172-10.897 26.171-14.37 30.775l-.85 1.127-5.824-3.837c-15.418-10.157-45.44-39.533-68.416-66.946-6.288-7.501-6.311-6.968.399-9.297 31.4-10.9 52.031-32.198 51.061-52.712-.735-15.555-9.409-21.247-32.402-21.263-33.283-.022-67.384 11.006-95.48 30.877-6.17 4.364-6.233 4.485-7.027 13.398-.364 4.089-.783 7.929-.93 8.534-.174.712.015 1.208.538 1.408 2.035.781 2.566.318 4.199-3.66 4.558-11.101 10.29-18.067 20.243-24.6 11.761-7.719 28.521-14.581 28.521-11.677 0 1.777-11.862 35.893-20.226 58.172-3.593 9.571-31.502 87.832-31.502 88.337 0 .118.842-.136 1.871-.566 2.451-1.025 8.859-2.237 11.874-2.247 3.421-.011 3.508-.13 5.769-7.922 11.193-38.56 41.583-120.734 50.331-136.089 7.654-13.437 36.457-10.686 43.274 4.132 11.107 24.145-9.715 48.268-49.099 56.887-8.817 1.929-8.933 1.224 2.414 14.648 41.695 49.327 58.969 66.175 77.813 75.896l3.659 1.888-3.117 3.863c-74.135 91.851-223.069 68.299-266.174-42.092C-17.479 120.364 66.735 5.391 180.026 13.856m-22.687 52.302c-35.521 4.456-63.608 37.396-58.221 68.284 1.756 10.072 5.373 15.397 22.283 32.811 18.436 18.985 21.527 32.135 11.188 47.594-23.516 35.159-90.798 36.9-92.002 2.38-.233-6.677-.383-7.24-1.928-7.24-.699 0-1.271.079-1.271.176 0 .097-.689 3.577-1.53 7.732-4.738 23.392-4.731 22.992-.453 25.16 12.478 6.323 40.498 6.656 62.703.745 32.669-8.696 59.638-35.262 59.638-58.745 0-12.465-1.865-15.68-19.715-33.975-23.258-23.839-28.982-38.966-21.121-55.818 11.698-25.078 64.438-25.507 62.725-.51-.309 4.513.087 5.313 2.495 5.029 1.313-.155 1.469-.459 2.586-5.031.654-2.676 2.041-7.719 3.083-11.208l1.895-6.342-1.249-2.355c-3.772-7.111-16.138-10.565-31.106-8.687" fill-rule="evenodd"/></svg>