<svg id="svg" version="1.1" width="781" height="662" xmlns="http://www.w3.org/2000/svg" xmlns:xlink="http://www.w3.org/1999/xlink" ><g id="svgg"><path id="path0" d="M160.051 0.534 C 31.972 7.372,-42.324 150.560,25.637 259.583 C 87.079 358.146,230.639 366.420,302.085 275.515 L 306.335 270.107 310.017 271.044 C 326.067 275.124,350.317 273.875,368.502 268.033 C 378.624 264.781,399.417 252.572,399.471 249.850 C 399.537 246.489,398.581 246.660,391.844 251.213 C 369.055 266.614,346.027 269.302,319.462 259.660 C 314.136 257.727,314.245 258.355,318.047 251.566 C 382.598 136.296,292.695 -6.547,160.051 0.534 M180.026 13.856 C 282.627 21.523,350.203 122.710,317.521 219.739 C 314.094 229.911,306.624 245.910,303.151 250.514 L 302.301 251.641 296.477 247.804 C 281.059 237.647,251.037 208.271,228.061 180.858 C 221.773 173.357,221.750 173.890,228.460 171.561 C 259.860 160.661,280.491 139.363,279.521 118.849 C 278.786 103.294,270.112 97.602,247.119 97.586 C 213.836 97.564,179.735 108.592,151.639 128.463 C 145.469 132.827,145.406 132.948,144.612 141.861 C 144.248 145.950,143.829 149.790,143.682 150.395 C 143.508 151.107,143.697 151.603,144.220 151.803 C 146.255 152.584,146.786 152.121,148.419 148.143 C 152.977 137.042,158.709 130.076,168.662 123.543 C 180.423 115.824,197.183 108.962,197.183 111.866 C 197.183 113.643,185.321 147.759,176.957 170.038 C 173.364 179.609,145.455 257.870,145.455 258.375 C 145.455 258.493,146.297 258.239,147.326 257.809 C 149.777 256.784,156.185 255.572,159.200 255.562 C 162.621 255.551,162.708 255.432,164.969 247.640 C 176.162 209.080,206.552 126.906,215.300 111.551 C 222.954 98.114,251.757 100.865,258.574 115.683 C 269.681 139.828,248.859 163.951,209.475 172.570 C 200.658 174.499,200.542 173.794,211.889 187.218 C 253.584 236.545,270.858 253.393,289.702 263.114 L 293.361 265.002 290.244 268.865 C 216.109 360.716,67.175 337.164,24.070 226.773 C -17.479 120.364,66.735 5.391,180.026 13.856 M157.339 66.158 C 121.818 70.614,93.731 103.554,99.118 134.442 C 100.874 144.514,104.491 149.839,121.401 167.253 C 139.837 186.238,142.928 199.388,132.589 214.847 C 109.073 250.006,41.791 251.747,40.587 217.227 C 40.354 210.550,40.204 209.987,38.659 209.987 C 37.960 209.987,37.388 210.066,37.388 210.163 C 37.388 210.260,36.699 213.740,35.858 217.895 C 31.120 241.287,31.127 240.887,35.405 243.055 C 47.883 249.378,75.903 249.711,98.108 243.800 C 130.777 235.104,157.746 208.538,157.746 185.055 C 157.746 172.590,155.881 169.375,138.031 151.080 C 114.773 127.241,109.049 112.114,116.910 95.262 C 128.608 70.184,181.348 69.755,179.635 94.752 C 179.326 99.265,179.722 100.065,182.130 99.781 C 183.443 99.626,183.599 99.322,184.716 94.750 C 185.370 92.074,186.757 87.031,187.799 83.542 L 189.694 77.200 188.445 74.845 C 184.673 67.734,172.307 64.280,157.339 66.158 " stroke="none" fill="#000000" fill-rule="evenodd"></path></g></svg>